<?xml version="1.0" encoding="UTF-8"?> <svg xmlns="http://www.w3.org/2000/svg" width="298.156" height="80" viewBox="0 0 298.156 80"><defs><style> .cls-1 { fill: #222d35; } .cls-1, .cls-2 { fill-rule: evenodd; } .cls-2 { fill: #bf0127; } </style></defs><path id="Fabli" class="cls-1" d="M3.859,71.857h7.594a2.062,2.062,0,0,0,1.519-.587,1.936,1.936,0,0,0,.591-1.426V49.129H38.876a2.062,2.062,0,0,0,1.519-.587,1.936,1.936,0,0,0,.591-1.426V41.078a1.94,1.94,0,0,0-.591-1.426,2.068,2.068,0,0,0-1.519-.587H13.563V23.3h27a2.062,2.062,0,0,0,1.519-.587,1.936,1.936,0,0,0,.591-1.426V15.247a2.042,2.042,0,0,0-.591-1.51,2.067,2.067,0,0,0-1.519-.587H3.859a1.925,1.925,0,0,0-1.477.587,2.121,2.121,0,0,0-.548,1.51v54.6a1.931,1.931,0,0,0,.591,1.426,1.955,1.955,0,0,0,1.434.587h0ZM62.248,72.7a18.5,18.5,0,0,0,8.438-1.719,13.813,13.813,0,0,0,5.231-4.4v3.271a1.931,1.931,0,0,0,.591,1.426,1.955,1.955,0,0,0,1.434.587h7a1.924,1.924,0,0,0,1.477-.587,2.012,2.012,0,0,0,.548-1.426V43.51a15.556,15.556,0,0,0-4.556-11.657Q77.858,27.408,67.9,27.408a23.647,23.647,0,0,0-10.21,1.971,16.136,16.136,0,0,0-6.117,4.613,8.838,8.838,0,0,0-2.067,4.738,1.73,1.73,0,0,0,.548,1.342,1.868,1.868,0,0,0,1.308.5h6.581a1.274,1.274,0,0,0,1.266-1.006L60.6,38.184a14.175,14.175,0,0,1,2.742-2.055,8.673,8.673,0,0,1,4.472-1.006q4.05,0,5.906,1.845A7.372,7.372,0,0,1,75.58,42.42v1.761L64.02,45.858q-8.1,1.258-12.741,4.78a11.346,11.346,0,0,0-2.574,15.683,14.285,14.285,0,0,0,5.653,4.655A18.021,18.021,0,0,0,62.248,72.7h0Zm2.869-8.051a9.538,9.538,0,0,1-5.358-1.468,4.683,4.683,0,0,1-2.236-4.151q0-4.947,9.7-6.458l8.438-1.342V52.9q0,5.7-2.953,8.722a10.162,10.162,0,0,1-7.594,3.019h0ZM122.155,72.7q8.522,0,13.079-5.409t4.894-14.467q0.083-1.089.084-2.768,0-1.761-.084-2.768Q139.875,38.4,135.276,32.9t-13.121-5.493q-8.184,0-12.909,5.535V14.325a1.981,1.981,0,0,0-.549-1.468,2,2,0,0,0-1.476-.545H99.88a2.038,2.038,0,0,0-1.434.545,1.9,1.9,0,0,0-.591,1.468V69.844a1.931,1.931,0,0,0,.591,1.426,1.955,1.955,0,0,0,1.434.587h6.75a2.063,2.063,0,0,0,1.519-.587,1.935,1.935,0,0,0,.59-1.426v-3.1q4.639,5.956,13.416,5.955h0Zm-3.206-9.058q-4.809,0-7.172-3.1a12.925,12.925,0,0,1-2.531-7.548q-0.086-1.007-.085-3.187,0-2.264.085-3.271a11.518,11.518,0,0,1,2.615-7.129,8.705,8.705,0,0,1,7.088-2.935q9.029,0,9.619,11.07,0.082,0.839.084,2.516t-0.084,2.516q-0.591,11.07-9.619,11.07h0Zm32.738,8.219h7.088a1.926,1.926,0,0,0,1.477-.587,2.013,2.013,0,0,0,.548-1.426V14.325a1.981,1.981,0,0,0-.548-1.468,2.008,2.008,0,0,0-1.477-.545h-7.088a2.037,2.037,0,0,0-1.434.545,1.9,1.9,0,0,0-.591,1.468V69.844a1.932,1.932,0,0,0,.591,1.426,1.954,1.954,0,0,0,1.434.587h0Zm22.022-50.739h7.763a2.1,2.1,0,0,0,1.477-.587,1.873,1.873,0,0,0,.632-1.426V12.983a2.041,2.041,0,0,0-.59-1.51,2.07,2.07,0,0,0-1.519-.587h-7.763a1.959,1.959,0,0,0-1.434.587,2.037,2.037,0,0,0-.591,1.51V19.1a1.932,1.932,0,0,0,.591,1.426,1.954,1.954,0,0,0,1.434.587h0Zm0.338,50.739h7.172a1.959,1.959,0,0,0,1.434-.587,1.936,1.936,0,0,0,.591-1.426V30.259a1.941,1.941,0,0,0-.591-1.426,1.964,1.964,0,0,0-1.434-.587h-7.172a2.04,2.04,0,0,0-1.435.545,1.9,1.9,0,0,0-.59,1.468V69.844a1.932,1.932,0,0,0,.59,1.426,1.957,1.957,0,0,0,1.435.587h0Z" transform="translate(-1.844)"></path><path class="cls-2" d="M288.211,75h-1.179a5.462,5.462,0,0,1-4.715-2.75l-0.084-.084a10.564,10.564,0,0,0-18.357,0l-0.084.084A5.293,5.293,0,0,1,259.077,75a5.4,5.4,0,0,1-5.389-5.335V62.5A64.835,64.835,0,0,0,222.279,7.068a35.29,35.29,0,0,1,9.347-2,60.4,60.4,0,0,1,29.64,51.677,4.493,4.493,0,0,0,3.452,4.418,4.665,4.665,0,0,0,5.221-2.251,39.775,39.775,0,0,0,4.716-21.338C273.476,17.32,256.466.817,235.921-.016a40.222,40.222,0,0,0-29.64,11.169A39.37,39.37,0,0,0,193.9,39.992,40.225,40.225,0,0,0,234.321,80H234.4l2.864-.083a2.6,2.6,0,0,0,2.442-2.168,72.457,72.457,0,0,0,.589-8.585,65.163,65.163,0,0,0-30.145-54.678,33.786,33.786,0,0,1,6.652-4.835c0.084,0.084.253,0.084,0.337,0.167A60.063,60.063,0,0,1,248.635,62.5v7.168A10.387,10.387,0,0,0,259.077,80a10.638,10.638,0,0,0,9.178-5.335l0.084-.083a5.3,5.3,0,0,1,4.716-2.75,5.2,5.2,0,0,1,4.715,2.75l0.084,0.083A10.466,10.466,0,0,0,287.032,80h1.179A2.5,2.5,0,1,0,288.211,75ZM269.6,37.908a34.051,34.051,0,0,1-3.369,17.087,65.263,65.263,0,0,0-24.84-49.26A35.336,35.336,0,0,1,269.6,37.908ZM234.825,62.663A60.6,60.6,0,0,1,205.27,46.577c-1.347-1.334-2.61-2.667-3.789-4.084l-2.526-3.334a35.806,35.806,0,0,1,1.347-9,67.653,67.653,0,0,0,6.062,6.918,66.556,66.556,0,0,0,26.525,16A62.284,62.284,0,0,1,234.825,62.663ZM234.91,75h-0.589A35.246,35.246,0,0,1,200.049,48.41c0.506,0.584,1.095,1.167,1.684,1.751a65.557,65.557,0,0,0,33.513,17.753v1.333C235.163,71.081,235.079,73.082,234.91,75Zm-4.042-27.922a61.091,61.091,0,0,1-20.883-13.5,58.289,58.289,0,0,1-6.9-8.168,1.966,1.966,0,0,0-.59-0.584,32.392,32.392,0,0,1,4.211-6.584A60.492,60.492,0,0,1,230.868,47.077ZM300,77.5a2.526,2.526,0,1,1-2.526-2.5A2.513,2.513,0,0,1,300,77.5Z" transform="translate(-1.844)"></path></svg> 